<svg data-v-423bf9ae="" xmlns="http://www.w3.org/2000/svg" viewBox="0 0 811 90" class="iconLeft"><!----><!----><!----><g data-v-423bf9ae="" id="a1f83023-6abf-4375-9762-8271ec244053" fill="white" transform="matrix(5.020920181534887,0,0,5.020920181534887,171.2545350890004,-3.7280338034030507)"><path d="M0.53 5.13L0.53 3.91L0.53 3.91Q0.62 3.91 0.86 3.91L0.86 3.91L0.86 3.91Q1.11 3.92 1.40 3.92L1.40 3.92L1.40 3.92Q1.70 3.92 2.00 3.92L2.00 3.92L2.00 3.92Q2.30 3.92 2.51 3.92L2.51 3.92L2.51 3.92Q2.69 3.92 2.94 3.92L2.94 3.92L2.94 3.92Q3.19 3.92 3.47 3.92L3.47 3.92L3.47 3.92Q3.75 3.92 4.03 3.91L4.03 3.91L4.03 3.91Q4.31 3.91 4.57 3.91L4.57 3.91L5.61 7.04L5.61 7.04Q5.80 7.63 5.98 8.19L5.98 8.19L5.98 8.19Q6.17 8.75 6.32 9.19L6.32 9.19L6.32 9.19Q6.46 9.63 6.55 9.90L6.55 9.90L6.55 9.90Q6.64 10.17 6.64 10.17L6.64 10.17L6.64 10.17Q6.71 9.94 6.86 9.46L6.86 9.46L6.86 9.46Q7.02 8.98 7.23 8.36L7.23 8.36L7.23 8.36Q7.44 7.75 7.67 7.08L7.67 7.08L7.67 7.08Q7.90 6.40 8.11 5.78L8.11 5.78L8.11 5.78Q8.33 5.16 8.49 4.66L8.49 4.66L8.49 4.66Q8.66 4.16 8.74 3.91L8.74 3.91L8.74 3.91Q8.98 3.91 9.29 3.91L9.29 3.91L9.29 3.91Q9.59 3.92 9.90 3.92L9.90 3.92L9.90 3.92Q10.21 3.92 10.50 3.92L10.50 3.92L10.50 3.92Q10.79 3.92 10.99 3.92L10.99 3.92L10.99 3.92Q11.16 3.92 11.43 3.92L11.43 3.92L11.43 3.92Q11.70 3.92 11.97 3.92L11.97 3.92L11.97 3.92Q12.24 3.92 12.46 3.91L12.46 3.91L12.46 3.91Q12.68 3.91 12.76 3.91L12.76 3.91L12.76 5.13L12.41 5.13L12.41 5.13Q12.20 5.13 12.08 5.16L12.08 5.16L12.08 5.16Q11.96 5.19 11.90 5.25L11.90 5.25L11.90 5.25Q11.84 5.30 11.83 5.39L11.83 5.39L11.83 5.39Q11.81 5.48 11.81 5.60L11.81 5.60L11.81 8.32L11.81 8.32Q11.81 9.50 11.82 11.01L11.82 11.01L11.82 11.01Q11.82 11.19 11.84 11.31L11.84 11.31L11.84 11.31Q11.86 11.44 11.93 11.51L11.93 11.51L11.93 11.51Q11.99 11.58 12.11 11.61L12.11 11.61L12.11 11.61Q12.24 11.63 12.44 11.63L12.44 11.63L12.78 11.63L12.78 12.85L12.78 12.85Q12.52 12.85 12.27 12.85L12.27 12.85L12.27 12.85Q12.02 12.84 11.76 12.84L11.76 12.84L11.76 12.84Q11.50 12.84 11.21 12.84L11.21 12.84L11.21 12.84Q10.92 12.84 10.58 12.84L10.58 12.84L10.58 12.84Q10.29 12.84 10.06 12.84L10.06 12.84L10.06 12.84Q9.83 12.84 9.63 12.84L9.63 12.84L9.63 12.84Q9.43 12.84 9.24 12.85L9.24 12.85L9.24 12.85Q9.05 12.85 8.85 12.85L8.85 12.85L8.85 11.63L9.13 11.63L9.13 11.63Q9.36 11.63 9.49 11.58L9.49 11.58L9.49 11.58Q9.63 11.52 9.70 11.41L9.70 11.41L9.70 11.41Q9.77 11.29 9.79 11.13L9.79 11.13L9.79 11.13Q9.81 10.96 9.81 10.76L9.81 10.76L9.81 5.00L9.42 6.07L7 12.85L5.74 12.85L5.74 12.85Q5.68 12.69 5.56 12.35L5.56 12.35L5.56 12.35Q5.43 12.00 5.27 11.55L5.27 11.55L5.27 11.55Q5.11 11.09 4.93 10.56L4.93 10.56L4.93 10.56Q4.74 10.02 4.55 9.47L4.55 9.47L4.55 9.47Q4.36 8.92 4.17 8.39L4.17 8.39L4.17 8.39Q3.99 7.85 3.82 7.40L3.82 7.40L3.82 7.40Q3.66 6.95 3.54 6.60L3.54 6.60L3.54 6.60Q3.42 6.25 3.36 6.09L3.36 6.09L3.17 5.56L3.17 5.56Q3.14 5.46 3.10 5.36L3.10 5.36L3.10 5.36Q3.06 5.26 3.04 5.19L3.04 5.19L3.04 5.19Q3.00 5.10 2.97 5.02L2.97 5.02L2.97 11.03L2.97 11.03Q2.97 11.23 3.00 11.35L3.00 11.35L3.00 11.35Q3.02 11.47 3.09 11.53L3.09 11.53L3.09 11.53Q3.15 11.59 3.27 11.61L3.27 11.61L3.27 11.61Q3.39 11.63 3.59 11.63L3.59 11.63L3.92 11.63L3.92 12.85L3.92 12.85Q3.72 12.85 3.53 12.85L3.53 12.85L3.53 12.85Q3.35 12.84 3.15 12.84L3.15 12.84L3.15 12.84Q2.95 12.84 2.73 12.84L2.73 12.84L2.73 12.84Q2.51 12.84 2.24 12.84L2.24 12.84L2.24 12.84Q1.96 12.84 1.72 12.84L1.72 12.84L1.72 12.84Q1.49 12.84 1.29 12.84L1.29 12.84L1.29 12.84Q1.08 12.84 0.89 12.85L0.89 12.85L0.89 12.85Q0.69 12.85 0.49 12.85L0.49 12.85L0.49 11.63L0.82 11.63L0.82 11.63Q1.07 11.63 1.20 11.58L1.20 11.58L1.20 11.58Q1.33 11.53 1.38 11.44L1.38 11.44L1.38 11.44Q1.44 11.34 1.45 11.20L1.45 11.20L1.45 11.20Q1.46 11.07 1.46 10.89L1.46 10.89L1.47 5.75L1.47 5.75Q1.47 5.58 1.45 5.47L1.45 5.47L1.45 5.47Q1.42 5.35 1.36 5.27L1.36 5.27L1.36 5.27Q1.29 5.20 1.17 5.16L1.17 5.16L1.17 5.16Q1.05 5.13 0.85 5.13L0.85 5.13L0.53 5.13ZM20.24 6.70L20.24 9.02L19.05 9.02L19.05 9.02Q18.96 8.26 18.58 7.90L18.58 7.90L18.58 7.90Q18.20 7.54 17.59 7.54L17.59 7.54L17.59 7.54Q17.20 7.54 16.90 7.70L16.90 7.70L16.90 7.70Q16.59 7.86 16.38 8.16L16.38 8.16L16.38 8.16Q16.17 8.45 16.07 8.86L16.07 8.86L16.07 8.86Q15.96 9.28 15.96 9.78L15.96 9.78L15.96 9.78Q15.96 10.29 16.07 10.66L16.07 10.66L16.07 10.66Q16.19 11.03 16.40 11.32L16.40 11.32L16.40 11.32Q16.62 11.61 16.93 11.76L16.93 11.76L16.93 11.76Q17.23 11.92 17.63 11.92L17.63 11.92L17.63 11.92Q18.22 11.92 18.57 11.58L18.57 11.58L18.57 11.58Q18.92 11.25 19.02 10.70L19.02 10.70L20.47 10.88L20.47 10.88Q20.38 11.40 20.12 11.81L20.12 11.81L20.12 11.81Q19.86 12.21 19.46 12.46L19.46 12.46L19.46 12.46Q19.06 12.71 18.53 12.86L18.53 12.86L18.53 12.86Q18.00 13.01 17.36 13.01L17.36 13.01L17.36 13.01Q16.56 13.01 15.90 12.78L15.90 12.78L15.90 12.78Q15.24 12.54 14.78 12.14L14.78 12.14L14.78 12.14Q14.32 11.74 14.07 11.14L14.07 11.14L14.07 11.14Q13.82 10.53 13.82 9.79L13.82 9.79L13.82 9.79Q13.82 9.07 14.07 8.47L14.07 8.47L14.07 8.47Q14.33 7.87 14.77 7.43L14.77 7.43L14.77 7.43Q15.20 7 15.79 6.76L15.79 6.76L15.79 6.76Q16.37 6.51 17.04 6.51L17.04 6.51L17.04 6.51Q17.55 6.51 18.04 6.65L18.04 6.65L18.04 6.65Q18.53 6.79 18.92 7.14L18.92 7.14L19.00 6.63L19.00 6.63Q19.12 6.64 19.28 6.64L19.28 6.64L19.28 6.64Q19.44 6.65 19.61 6.66L19.61 6.66L19.61 6.66Q19.78 6.67 19.94 6.68L19.94 6.68L19.94 6.68Q20.10 6.69 20.24 6.70L20.24 6.70ZM26.69 11.70L26.69 11.70L26.69 11.70Q27.21 11.70 27.60 11.59L27.60 11.59L27.60 11.59Q27.99 11.48 28.26 11.24L28.26 11.24L28.26 11.24Q28.53 10.99 28.67 10.60L28.67 10.60L28.67 10.60Q28.82 10.20 28.85 9.63L28.85 9.63L30.24 9.93L30.14 12.00L30.14 12.00Q29.33 12.54 28.42 12.79L28.42 12.79L28.42 12.79Q27.51 13.03 26.46 13.03L26.46 13.03L26.46 13.03Q25.21 13.03 24.32 12.67L24.32 12.67L24.32 12.67Q23.42 12.30 22.85 11.68L22.85 11.68L22.85 11.68Q22.27 11.05 22.00 10.20L22.00 10.20L22.00 10.20Q21.72 9.35 21.72 8.38L21.72 8.38L21.72 8.38Q21.72 7.36 22.04 6.51L22.04 6.51L22.04 6.51Q22.35 5.65 22.93 5.04L22.93 5.04L22.93 5.04Q23.51 4.42 24.34 4.08L24.34 4.08L24.34 4.08Q25.18 3.74 26.23 3.74L26.23 3.74L26.23 3.74Q26.54 3.74 26.88 3.79L26.88 3.79L26.88 3.79Q27.21 3.85 27.52 3.95L27.52 3.95L27.52 3.95Q27.83 4.05 28.09 4.20L28.09 4.20L28.09 4.20Q28.36 4.34 28.54 4.52L28.54 4.52L28.57 3.93L30.09 3.93L30.09 6.73L28.69 6.73L28.69 6.73Q28.64 5.95 28.13 5.51L28.13 5.51L28.13 5.51Q27.62 5.07 26.67 5.07L26.67 5.07L26.67 5.07Q26.09 5.07 25.63 5.28L25.63 5.28L25.63 5.28Q25.17 5.49 24.85 5.90L24.85 5.90L24.85 5.90Q24.53 6.32 24.36 6.94L24.36 6.94L24.36 6.94Q24.19 7.55 24.19 8.36L24.19 8.36L24.19 8.36Q24.19 9.15 24.36 9.78L24.36 9.78L24.36 9.78Q24.53 10.40 24.86 10.82L24.86 10.82L24.86 10.82Q25.18 11.25 25.64 11.48L25.64 11.48L25.64 11.48Q26.10 11.70 26.69 11.70ZM35.16 6.45L35.16 6.45L35.16 6.45Q35.92 6.45 36.60 6.67L36.60 6.67L36.60 6.67Q37.28 6.88 37.80 7.29L37.80 7.29L37.80 7.29Q38.31 7.71 38.61 8.33L38.61 8.33L38.61 8.33Q38.91 8.95 38.91 9.75L38.91 9.75L38.91 9.75Q38.91 10.54 38.62 11.16L38.62 11.16L38.62 11.16Q38.32 11.77 37.82 12.17L37.82 12.17L37.82 12.17Q37.31 12.56 36.63 12.79L36.63 12.79L36.63 12.79Q35.94 13.01 35.16 13.01L35.16 13.01L35.16 13.01Q34.36 13.01 33.68 12.79L33.68 12.79L33.68 12.79Q33.00 12.57 32.49 12.17L32.49 12.17L32.49 12.17Q31.98 11.78 31.69 11.16L31.69 11.16L31.69 11.16Q31.40 10.55 31.40 9.75L31.40 9.75L31.40 9.75Q31.40 8.98 31.68 8.36L31.68 8.36L31.68 8.36Q31.97 7.75 32.48 7.32L32.48 7.32L32.48 7.32Q32.98 6.90 33.67 6.68L33.67 6.68L33.67 6.68Q34.36 6.45 35.16 6.45ZM35.16 7.58L35.16 7.58L35.16 7.58Q34.38 7.58 33.96 8.16L33.96 8.16L33.96 8.16Q33.54 8.73 33.54 9.75L33.54 9.75L33.54 9.75Q33.54 10.77 33.95 11.34L33.95 11.34L33.95 11.34Q34.37 11.92 35.14 11.92L35.14 11.92L35.14 11.92Q35.53 11.92 35.83 11.76L35.83 11.76L35.83 11.76Q36.13 11.61 36.34 11.33L36.34 11.33L36.34 11.33Q36.55 11.05 36.66 10.64L36.66 10.64L36.66 10.64Q36.77 10.23 36.77 9.72L36.77 9.72L36.77 9.72Q36.77 9.22 36.66 8.83L36.66 8.83L36.66 8.83Q36.55 8.43 36.35 8.15L36.35 8.15L36.35 8.15Q36.14 7.88 35.84 7.73L35.84 7.73L35.84 7.73Q35.54 7.58 35.16 7.58ZM38.99 7.85L38.99 6.64L38.99 6.64Q39.50 6.64 39.93 6.65L39.93 6.65L39.93 6.65Q40.37 6.66 40.71 6.66L40.71 6.66L40.71 6.66Q41.16 6.66 41.65 6.65L41.65 6.65L41.65 6.65Q42.14 6.65 42.77 6.64L42.77 6.64L42.77 7.75L42.77 7.75Q42.66 7.77 42.55 7.76L42.55 7.76L42.55 7.76Q42.44 7.76 42.34 7.77L42.34 7.77L42.34 7.77Q42.14 7.79 42.03 7.85L42.03 7.85L42.03 7.85Q41.92 7.91 41.90 8.06L41.90 8.06L41.90 8.06Q41.92 8.16 41.96 8.28L41.96 8.28L41.96 8.28Q42 8.39 42.05 8.51L42.05 8.51L42.05 8.51Q42.11 8.63 42.17 8.75L42.17 8.75L42.17 8.75Q42.23 8.87 42.27 8.96L42.27 8.96L43.31 11.35L43.31 11.35Q43.39 11.16 43.53 10.83L43.53 10.83L43.53 10.83Q43.66 10.51 43.82 10.13L43.82 10.13L43.82 10.13Q43.98 9.74 44.15 9.31L44.15 9.31L44.15 9.31Q44.32 8.89 44.48 8.48L44.48 8.48L44.48 8.48Q44.59 8.22 44.63 8.03L44.63 8.03L44.63 8.03Q44.58 7.88 44.41 7.81L44.41 7.81L44.41 7.81Q44.24 7.75 43.80 7.75L43.80 7.75L43.80 6.64L43.80 6.64Q44.26 6.65 44.60 6.65L44.60 6.65L44.60 6.65Q44.95 6.66 45.31 6.66L45.31 6.66L45.31 6.66Q45.69 6.66 46.09 6.65L46.09 6.65L46.09 6.65Q46.50 6.65 47.00 6.64L47.00 6.64L47.00 6.64Q47.00 6.67 47.00 6.84L47.00 6.84L47.00 6.84Q47.00 7.01 47.00 7.20L47.00 7.20L47.00 7.20Q47.00 7.40 47.00 7.56L47.00 7.56L47.00 7.56Q47.00 7.73 47.01 7.75L47.01 7.75L47.01 7.75Q46.72 7.76 46.56 7.79L46.56 7.79L46.56 7.79Q46.40 7.83 46.29 7.91L46.29 7.91L46.29 7.91Q46.19 7.99 46.11 8.14L46.11 8.14L46.11 8.14Q46.03 8.29 45.91 8.51L45.91 8.51L45.91 8.51Q45.83 8.70 45.64 9.11L45.64 9.11L45.64 9.11Q45.45 9.52 45.21 10.04L45.21 10.04L45.21 10.04Q44.97 10.56 44.70 11.14L44.70 11.14L44.70 11.14Q44.43 11.72 44.19 12.24L44.19 12.24L44.19 12.24Q43.95 12.76 43.76 13.17L43.76 13.17L43.76 13.17Q43.57 13.58 43.49 13.77L43.49 13.77L43.49 13.77Q43.24 14.31 43.01 14.68L43.01 14.68L43.01 14.68Q42.78 15.04 42.52 15.26L42.52 15.26L42.52 15.26Q42.26 15.48 41.94 15.58L41.94 15.58L41.94 15.58Q41.62 15.67 41.19 15.67L41.19 15.67L41.19 15.67Q41.05 15.67 40.85 15.67L40.85 15.67L40.85 15.67Q40.65 15.67 40.52 15.68L40.52 15.68L40.52 14.53L40.52 14.53Q40.66 14.53 40.78 14.53L40.78 14.53L40.78 14.53Q40.90 14.53 41.00 14.52L41.00 14.52L41.00 14.52Q41.27 14.51 41.44 14.45L41.44 14.45L41.44 14.45Q41.62 14.39 41.76 14.24L41.76 14.24L41.76 14.24Q41.90 14.10 42.03 13.85L42.03 13.85L42.03 13.85Q42.16 13.60 42.33 13.21L42.33 13.21L42.33 13.21Q41.74 11.92 41.26 10.90L41.26 10.90L41.26 10.90Q41.06 10.46 40.86 10.04L40.86 10.04L40.86 10.04Q40.67 9.62 40.51 9.28L40.51 9.28L40.51 9.28Q40.35 8.94 40.25 8.73L40.25 8.73L40.25 8.73Q40.15 8.51 40.14 8.48L40.14 8.48L40.14 8.48Q40.04 8.26 39.96 8.13L39.96 8.13L39.96 8.13Q39.89 8.00 39.78 7.94L39.78 7.94L39.78 7.94Q39.67 7.87 39.49 7.85L39.49 7.85L39.49 7.85Q39.31 7.83 38.99 7.85L38.99 7.85ZM50.79 3.91L54.62 3.91L54.62 3.91Q57.53 3.91 58.96 5.01L58.96 5.01L58.96 5.01Q60.39 6.12 60.39 8.33L60.39 8.33L60.39 8.33Q60.39 9.61 59.99 10.48L59.99 10.48L59.99 10.48Q59.59 11.34 58.85 11.87L58.85 11.87L58.85 11.87Q58.12 12.40 57.08 12.63L57.08 12.63L57.08 12.63Q56.05 12.85 54.77 12.85L54.77 12.85L50.79 12.85L50.79 11.63L51.13 11.63L51.13 11.63Q51.34 11.63 51.46 11.58L51.46 11.58L51.46 11.58Q51.58 11.52 51.65 11.42L51.65 11.42L51.65 11.42Q51.71 11.32 51.72 11.18L51.72 11.18L51.72 11.18Q51.74 11.05 51.74 10.88L51.74 10.88L51.74 10.88Q51.74 10.86 51.74 10.63L51.74 10.63L51.74 10.63Q51.74 10.40 51.74 10.04L51.74 10.04L51.74 10.04Q51.73 9.68 51.73 9.22L51.73 9.22L51.73 9.22Q51.73 8.76 51.73 8.29L51.73 8.29L51.73 5.78L51.73 5.78Q51.73 5.63 51.71 5.52L51.71 5.52L51.71 5.52Q51.69 5.40 51.62 5.31L51.62 5.31L51.62 5.31Q51.56 5.22 51.44 5.17L51.44 5.17L51.44 5.17Q51.32 5.12 51.13 5.12L51.13 5.12L50.79 5.12L50.79 3.91ZM53.98 5.24L53.98 11.53L54.96 11.53L54.96 11.53Q55.71 11.53 56.28 11.34L56.28 11.34L56.28 11.34Q56.84 11.16 57.21 10.76L57.21 10.76L57.21 10.76Q57.59 10.37 57.77 9.76L57.77 9.76L57.77 9.76Q57.96 9.15 57.96 8.31L57.96 8.31L57.96 8.31Q57.96 6.71 57.22 5.97L57.22 5.97L57.22 5.97Q56.48 5.24 54.95 5.24L54.95 5.24L53.98 5.24ZM68.84 9.96L68.48 10.01L63.83 10.01L63.83 10.01Q63.83 10.99 64.31 11.45L64.31 11.45L64.31 11.45Q64.78 11.92 65.60 11.92L65.60 11.92L65.60 11.92Q66.18 11.92 66.58 11.65L66.58 11.65L66.58 11.65Q66.98 11.38 67.15 11.01L67.15 11.01L68.71 11.13L68.71 11.13Q68.43 12.07 67.58 12.54L67.58 12.54L67.58 12.54Q66.73 13.01 65.44 13.01L65.44 13.01L65.44 13.01Q64.50 13.01 63.80 12.76L63.80 12.76L63.80 12.76Q63.10 12.52 62.64 12.10L62.64 12.10L62.64 12.10Q62.17 11.68 61.94 11.08L61.94 11.08L61.94 11.08Q61.71 10.48 61.71 9.77L61.71 9.77L61.71 9.77Q61.71 9.01 61.97 8.39L61.97 8.39L61.97 8.39Q62.23 7.78 62.70 7.35L62.70 7.35L62.70 7.35Q63.17 6.92 63.83 6.69L63.83 6.69L63.83 6.69Q64.50 6.45 65.31 6.45L65.31 6.45L65.31 6.45Q66.10 6.45 66.75 6.68L66.75 6.68L66.75 6.68Q67.40 6.90 67.86 7.34L67.86 7.34L67.86 7.34Q68.33 7.78 68.58 8.44L68.58 8.44L68.58 8.44Q68.84 9.09 68.84 9.96L68.84 9.96ZM66.89 9.12L66.89 9.13L66.89 9.08L66.89 9.08Q66.89 9.06 66.89 9.03L66.89 9.03L66.89 9.03Q66.88 9.01 66.88 8.98L66.88 8.98L66.88 8.98Q66.82 8.26 66.43 7.86L66.43 7.86L66.43 7.86Q66.04 7.46 65.41 7.46L65.41 7.46L65.41 7.46Q64.70 7.46 64.30 7.90L64.30 7.90L64.30 7.90Q63.90 8.35 63.85 9.12L63.85 9.12L66.89 9.12ZM72.47 12.95L70.49 6.32L70.49 6.32Q70.36 5.90 70.29 5.66L70.29 5.66L70.29 5.66Q70.23 5.42 70.13 5.30L70.13 5.30L70.13 5.30Q70.04 5.19 69.88 5.16L69.88 5.16L69.88 5.16Q69.72 5.13 69.41 5.13L69.41 5.13L69.41 3.91L69.41 3.91Q69.84 3.92 70.23 3.92L70.23 3.92L70.23 3.92Q70.40 3.92 70.57 3.92L70.57 3.92L70.57 3.92Q70.75 3.92 70.90 3.92L70.90 3.92L70.90 3.92Q71.06 3.92 71.19 3.92L71.19 3.92L71.19 3.92Q71.33 3.92 71.42 3.92L71.42 3.92L71.42 3.92Q71.80 3.92 72.25 3.92L72.25 3.92L72.25 3.92Q72.69 3.92 73.29 3.91L73.29 3.91L73.29 5.13L73.29 5.13Q72.77 5.14 72.53 5.20L72.53 5.20L72.53 5.20Q72.41 5.30 72.41 5.51L72.41 5.51L72.41 5.51Q72.41 5.60 72.42 5.71L72.42 5.71L72.42 5.71Q72.43 5.82 72.47 5.94L72.47 5.94L72.47 5.94Q72.53 6.16 72.64 6.58L72.64 6.58L72.64 6.58Q72.74 6.99 72.87 7.51L72.87 7.51L72.87 7.51Q72.99 8.02 73.13 8.58L73.13 8.58L73.13 8.58Q73.27 9.15 73.40 9.66L73.40 9.66L73.40 9.66Q73.53 10.17 73.63 10.59L73.63 10.59L73.63 10.59Q73.74 11.01 73.80 11.22L73.80 11.22L75.59 4.44L77.41 4.44L79.24 11.23L80.58 5.82L80.58 5.82Q80.61 5.71 80.63 5.61L80.63 5.61L80.63 5.61Q80.66 5.52 80.67 5.43L80.67 5.43L80.67 5.43Q80.64 5.29 80.49 5.22L80.49 5.22L80.49 5.22Q80.35 5.15 80.04 5.14L80.04 5.14L80.04 5.14Q80.00 5.13 79.90 5.13L79.90 5.13L79.90 5.13Q79.80 5.13 79.77 5.13L79.77 5.13L79.77 3.91L79.77 3.91Q80.31 3.92 80.71 3.92L80.71 3.92L80.71 3.92Q81.12 3.92 81.46 3.92L81.46 3.92L81.46 3.92Q81.62 3.92 81.87 3.92L81.87 3.92L81.87 3.92Q82.12 3.92 82.37 3.92L82.37 3.92L82.37 3.92Q82.63 3.92 82.84 3.91L82.84 3.91L82.84 3.91Q83.06 3.91 83.15 3.91L83.15 3.91L83.15 5.13L83.15 5.13Q82.90 5.13 82.73 5.17L82.73 5.17L82.73 5.17Q82.56 5.21 82.44 5.32L82.44 5.32L82.44 5.32Q82.32 5.43 82.22 5.64L82.22 5.64L82.22 5.64Q82.12 5.85 82.01 6.21L82.01 6.21L82.01 6.21Q81.97 6.32 81.89 6.58L81.89 6.58L81.89 6.58Q81.81 6.85 81.70 7.23L81.70 7.23L81.70 7.23Q81.59 7.61 81.45 8.07L81.45 8.07L81.45 8.07Q81.32 8.54 81.17 9.05L81.17 9.05L81.17 9.05Q81.03 9.56 80.87 10.09L80.87 10.09L80.87 10.09Q80.72 10.62 80.57 11.14L80.57 11.14L80.57 11.14Q80.42 11.65 80.29 12.11L80.29 12.11L80.29 12.11Q80.15 12.58 80.04 12.95L80.04 12.95L77.93 12.95L76.29 6.45L74.63 12.95L72.47 12.95ZM85.12 3.73L85.12 3.73L85.12 3.73Q85.37 3.73 85.59 3.78L85.59 3.78L85.59 3.78Q85.80 3.84 85.97 3.95L85.97 3.95L85.97 3.95Q86.13 4.05 86.21 4.21L86.21 4.21L86.21 4.21Q86.30 4.37 86.30 4.56L86.30 4.56L86.30 4.56Q86.30 4.94 85.99 5.17L85.99 5.17L85.99 5.17Q85.67 5.41 85.12 5.41L85.12 5.41L85.12 5.41Q84.59 5.41 84.27 5.20L84.27 5.20L84.27 5.20Q83.95 4.98 83.95 4.56L83.95 4.56L83.95 4.56Q83.95 4.18 84.27 3.95L84.27 3.95L84.27 3.95Q84.59 3.73 85.12 3.73ZM86.29 6.62L86.29 11.12L86.29 11.12Q86.29 11.33 86.32 11.45L86.32 11.45L86.32 11.45Q86.35 11.57 86.44 11.64L86.44 11.64L86.44 11.64Q86.52 11.70 86.68 11.72L86.68 11.72L86.68 11.72Q86.84 11.74 87.09 11.74L87.09 11.74L87.09 12.85L87.09 12.85Q86.86 12.85 86.57 12.85L86.57 12.85L86.57 12.85Q86.29 12.84 86.00 12.84L86.00 12.84L86.00 12.84Q85.71 12.84 85.44 12.84L85.44 12.84L85.44 12.84Q85.17 12.84 84.96 12.84L84.96 12.84L84.96 12.84Q84.72 12.84 84.51 12.84L84.51 12.84L84.51 12.84Q84.29 12.84 84.10 12.84L84.10 12.84L84.10 12.84Q83.91 12.84 83.73 12.85L83.73 12.85L83.73 12.85Q83.54 12.85 83.35 12.85L83.35 12.85L83.35 11.74L83.35 11.74Q83.64 11.74 83.81 11.73L83.81 11.73L83.81 11.73Q83.97 11.71 84.06 11.65L84.06 11.65L84.06 11.65Q84.15 11.58 84.18 11.46L84.18 11.46L84.18 11.46Q84.21 11.33 84.21 11.12L84.21 11.12L84.21 8.12L84.21 8.12Q84.21 7.98 84.16 7.90L84.16 7.90L84.16 7.90Q84.11 7.83 84.01 7.79L84.01 7.79L84.01 7.79Q83.90 7.75 83.75 7.75L83.75 7.75L83.75 7.75Q83.60 7.74 83.38 7.74L83.38 7.74L83.38 7.74Q83.38 7.46 83.39 7.19L83.39 7.19L83.39 7.19Q83.39 6.92 83.39 6.64L83.39 6.64L83.39 6.64Q83.68 6.64 83.94 6.65L83.94 6.65L83.94 6.65Q84.20 6.65 84.44 6.65L84.44 6.65L84.44 6.65Q84.89 6.65 85.35 6.64L85.35 6.64L85.35 6.64Q85.81 6.64 86.29 6.62L86.29 6.62ZM88.91 5.09L90.62 4.76L90.62 6.64L92.29 6.64L92.29 7.74L90.62 7.74L90.62 10.51L90.62 10.51Q90.62 10.81 90.64 11.04L90.64 11.04L90.64 11.04Q90.66 11.26 90.72 11.41L90.72 11.41L90.72 11.41Q90.78 11.55 90.90 11.63L90.90 11.63L90.90 11.63Q91.01 11.70 91.21 11.70L91.21 11.70L91.21 11.70Q91.66 11.70 91.66 11.07L91.66 11.07L92.42 10.97L92.42 11.19L92.42 11.19Q92.41 11.70 92.28 12.03L92.28 12.03L92.28 12.03Q92.16 12.37 91.92 12.59L91.92 12.59L91.92 12.59Q91.68 12.81 91.33 12.91L91.33 12.91L91.33 12.91Q90.99 13.01 90.56 13.01L90.56 13.01L90.56 13.01Q89.50 13.01 89.01 12.44L89.01 12.44L89.01 12.44Q88.53 11.88 88.53 10.88L88.53 10.88L88.53 7.74L87.49 7.74L87.49 6.72L87.49 6.72Q87.57 6.72 87.76 6.70L87.76 6.70L87.76 6.70Q87.96 6.69 88.16 6.67L88.16 6.67L88.16 6.67Q88.40 6.65 88.68 6.63L88.68 6.63L88.68 6.63Q88.68 6.61 88.69 6.50L88.69 6.50L88.69 6.50Q88.71 6.38 88.74 6.23L88.74 6.23L88.74 6.23Q88.76 6.07 88.80 5.89L88.80 5.89L88.80 5.89Q88.83 5.70 88.85 5.54L88.85 5.54L88.85 5.54Q88.87 5.37 88.89 5.25L88.89 5.25L88.89 5.25Q88.91 5.13 88.91 5.09L88.91 5.09ZM94.32 5.09L96.03 4.76L96.03 6.64L97.71 6.64L97.71 7.74L96.04 7.74L96.04 10.51L96.04 10.51Q96.04 10.81 96.06 11.04L96.06 11.04L96.06 11.04Q96.07 11.26 96.13 11.41L96.13 11.41L96.13 11.41Q96.20 11.55 96.31 11.63L96.31 11.63L96.31 11.63Q96.43 11.70 96.62 11.70L96.62 11.70L96.62 11.70Q97.08 11.70 97.08 11.07L97.08 11.07L97.84 10.97L97.84 11.19L97.84 11.19Q97.82 11.70 97.70 12.03L97.70 12.03L97.70 12.03Q97.57 12.37 97.33 12.59L97.33 12.59L97.33 12.59Q97.09 12.81 96.75 12.91L96.75 12.91L96.75 12.91Q96.41 13.01 95.97 13.01L95.97 13.01L95.97 13.01Q94.91 13.01 94.43 12.44L94.43 12.44L94.43 12.44Q93.95 11.88 93.95 10.88L93.95 10.88L93.95 7.74L92.91 7.74L92.91 6.72L92.91 6.72Q92.98 6.72 93.18 6.70L93.18 6.70L93.18 6.70Q93.37 6.69 93.58 6.67L93.58 6.67L93.58 6.67Q93.81 6.65 94.09 6.63L94.09 6.63L94.09 6.63Q94.09 6.61 94.11 6.50L94.11 6.50L94.11 6.50Q94.12 6.38 94.15 6.23L94.15 6.23L94.15 6.23Q94.18 6.07 94.21 5.89L94.21 5.89L94.21 5.89Q94.24 5.70 94.26 5.54L94.26 5.54L94.26 5.54Q94.29 5.37 94.31 5.25L94.31 5.25L94.31 5.25Q94.32 5.13 94.32 5.09L94.32 5.09ZM102.18 5.13L102.18 3.91L102.18 3.91Q102.22 3.91 102.42 3.91L102.42 3.91L102.42 3.91Q102.61 3.92 102.86 3.92L102.86 3.92L102.86 3.92Q103.11 3.92 103.36 3.93L103.36 3.93L103.36 3.93Q103.61 3.93 103.77 3.93L103.77 3.93L103.77 3.93Q104.10 3.93 104.41 3.93L104.41 3.93L104.41 3.93Q104.73 3.93 105.05 3.93L105.05 3.93L105.05 3.93Q105.38 3.92 105.74 3.92L105.74 3.92L105.74 3.92Q106.09 3.92 106.50 3.91L106.50 3.91L106.50 5.13L106.06 5.13L106.06 5.13Q105.83 5.13 105.70 5.20L105.70 5.20L105.70 5.20Q105.57 5.26 105.50 5.37L105.50 5.37L105.50 5.37Q105.44 5.48 105.42 5.62L105.42 5.62L105.42 5.62Q105.41 5.76 105.41 5.91L105.41 5.91L105.41 8.74L105.41 8.74Q105.41 9.96 105.42 11.50L105.42 11.50L107.63 11.50L107.63 11.50Q107.88 11.50 108.03 11.40L108.03 11.40L108.03 11.40Q108.18 11.29 108.25 11.07L108.25 11.07L108.25 11.07Q108.32 10.86 108.34 10.54L108.34 10.54L108.34 10.54Q108.36 10.23 108.36 9.82L108.36 9.82L109.61 9.82L109.61 12.85L102.18 12.85L102.18 11.63L102.50 11.63L102.50 11.63Q102.74 11.63 102.88 11.57L102.88 11.57L102.88 11.57Q103.02 11.51 103.09 11.41L103.09 11.41L103.09 11.41Q103.15 11.31 103.17 11.16L103.17 11.16L103.17 11.16Q103.18 11.02 103.18 10.86L103.18 10.86L103.18 6.09L103.18 5.82L103.18 5.82Q103.18 5.69 103.16 5.56L103.16 5.56L103.16 5.56Q103.14 5.43 103.07 5.34L103.07 5.34L103.07 5.34Q103.00 5.24 102.87 5.19L102.87 5.19L102.87 5.19Q102.73 5.13 102.50 5.13L102.50 5.13L102.18 5.13ZM110.31 5.13L110.31 3.91L110.31 3.91Q110.36 3.91 110.55 3.91L110.55 3.91L110.55 3.91Q110.75 3.92 111.00 3.92L111.00 3.92L111.00 3.92Q111.24 3.92 111.49 3.93L111.49 3.93L111.49 3.93Q111.74 3.93 111.90 3.93L111.90 3.93L111.90 3.93Q112.23 3.93 112.55 3.93L112.55 3.93L112.55 3.93Q112.86 3.93 113.19 3.93L113.19 3.93L113.19 3.93Q113.52 3.92 113.87 3.92L113.87 3.92L113.87 3.92Q114.23 3.92 114.64 3.91L114.64 3.91L114.64 5.13L114.19 5.13L114.19 5.13Q113.96 5.13 113.83 5.20L113.83 5.20L113.83 5.20Q113.70 5.26 113.64 5.37L113.64 5.37L113.64 5.37Q113.57 5.48 113.56 5.62L113.56 5.62L113.56 5.62Q113.54 5.76 113.54 5.91L113.54 5.91L113.54 8.74L113.54 8.74Q113.54 9.96 113.55 11.50L113.55 11.50L115.76 11.50L115.76 11.50Q116.02 11.50 116.17 11.40L116.17 11.40L116.17 11.40Q116.31 11.29 116.39 11.07L116.39 11.07L116.39 11.07Q116.46 10.86 116.48 10.54L116.48 10.54L116.48 10.54Q116.50 10.23 116.50 9.82L116.50 9.82L117.75 9.82L117.75 12.85L110.31 12.85L110.31 11.63L110.63 11.63L110.63 11.63Q110.88 11.63 111.02 11.57L111.02 11.57L111.02 11.57Q111.16 11.51 111.22 11.41L111.22 11.41L111.22 11.41Q111.29 11.31 111.30 11.16L111.30 11.16L111.30 11.16Q111.32 11.02 111.32 10.86L111.32 10.86L111.32 6.09L111.32 5.82L111.32 5.82Q111.32 5.69 111.30 5.56L111.30 5.56L111.30 5.56Q111.28 5.43 111.21 5.34L111.21 5.34L111.21 5.34Q111.14 5.24 111.00 5.19L111.00 5.19L111.00 5.19Q110.87 5.13 110.63 5.13L110.63 5.13L110.31 5.13ZM123.70 11.70L123.70 11.70L123.70 11.70Q124.22 11.70 124.62 11.59L124.62 11.59L124.62 11.59Q125.01 11.48 125.28 11.24L125.28 11.24L125.28 11.24Q125.54 10.99 125.69 10.60L125.69 10.60L125.69 10.60Q125.84 10.20 125.86 9.63L125.86 9.63L127.26 9.93L127.16 12.00L127.16 12.00Q126.35 12.54 125.44 12.79L125.44 12.79L125.44 12.79Q124.53 13.03 123.47 13.03L123.47 13.03L123.47 13.03Q122.23 13.03 121.33 12.67L121.33 12.67L121.33 12.67Q120.44 12.30 119.86 11.68L119.86 11.68L119.86 11.68Q119.29 11.05 119.01 10.20L119.01 10.20L119.01 10.20Q118.74 9.35 118.74 8.38L118.74 8.38L118.74 8.38Q118.74 7.36 119.05 6.51L119.05 6.51L119.05 6.51Q119.36 5.65 119.94 5.04L119.94 5.04L119.94 5.04Q120.52 4.42 121.36 4.08L121.36 4.08L121.36 4.08Q122.19 3.74 123.25 3.74L123.25 3.74L123.25 3.74Q123.56 3.74 123.89 3.79L123.89 3.79L123.89 3.79Q124.23 3.85 124.54 3.95L124.54 3.95L124.54 3.95Q124.84 4.05 125.11 4.20L125.11 4.20L125.11 4.20Q125.37 4.34 125.56 4.52L125.56 4.52L125.59 3.93L127.11 3.93L127.11 6.73L125.71 6.73L125.71 6.73Q125.65 5.95 125.15 5.51L125.15 5.51L125.15 5.51Q124.64 5.07 123.68 5.07L123.68 5.07L123.68 5.07Q123.10 5.07 122.64 5.28L122.64 5.28L122.64 5.28Q122.19 5.49 121.87 5.90L121.87 5.90L121.87 5.90Q121.55 6.32 121.38 6.94L121.38 6.94L121.38 6.94Q121.21 7.55 121.21 8.36L121.21 8.36L121.21 8.36Q121.21 9.15 121.38 9.78L121.38 9.78L121.38 9.78Q121.55 10.40 121.87 10.82L121.87 10.82L121.87 10.82Q122.19 11.25 122.65 11.48L122.65 11.48L122.65 11.48Q123.12 11.70 123.70 11.70Z"></path></g><!----><g data-v-423bf9ae="" id="60fcedc5-9c62-407f-984d-8f8c05f99900" transform="matrix(4.803586662404586,0,0,4.803586662404586,0.14261340152661717,-31.22538662899096)" stroke="none" fill="white"><path d="M16 19.586l7.496-12.954H8.504zM7.496 12.414L0 25.368h14.992zM24.504 12.414l-7.496 12.954H32z"></path></g><!----></svg>